<svg version="1.1" id="Layer_1" xmlns="http://www.w3.org/2000/svg" xmlns:xlink="http://www.w3.org/1999/xlink" x="0px" y="0px"
	 width="100%" viewBox="0 0 961 227" enable-background="new 0 0 961 227" xml:space="preserve">
<path fill="#FEFFFE" opacity="1.000000" stroke="none" 
	d="
M647.000000,228.000000 
	C431.333344,228.000000 216.166672,228.000000 1.000000,228.000000 
	C1.000000,152.333328 1.000000,76.666664 1.000000,1.000000 
	C321.333344,1.000000 641.666687,1.000000 962.000000,1.000000 
	C962.000000,76.666664 962.000000,152.333328 962.000000,228.000000 
	C857.166687,228.000000 752.333313,228.000000 647.000000,228.000000 
M76.766296,166.657822 
	C90.262825,166.693893 103.759346,166.749313 117.255898,166.761459 
	C136.920532,166.779160 156.585281,166.800049 176.249786,166.743500 
	C181.756073,166.727661 185.216263,163.566193 185.241440,158.869537 
	C185.266907,154.118042 181.888596,151.055115 176.358978,150.891495 
	C174.027893,150.822510 171.693146,150.875183 169.360062,150.875031 
	C140.196381,150.873199 111.032684,150.863022 81.869019,150.880234 
	C77.704193,150.882690 73.814209,150.280914 71.509750,146.281525 
	C67.486092,139.298523 72.028252,132.146011 80.578552,132.130112 
	C107.575691,132.079926 134.573013,132.126419 161.570236,132.106918 
	C175.656967,132.096741 184.417923,125.247139 187.734131,111.559204 
	C192.276382,92.810661 196.420898,73.958778 201.361862,55.317104 
	C203.443497,47.463356 199.344040,39.557251 189.119339,39.674049 
	C151.628067,40.102325 114.128967,39.846321 76.632812,39.847111 
	C64.708229,39.847363 64.708229,39.846195 61.949284,28.222797 
	C59.905670,19.613068 52.844162,13.678193 44.062878,13.524361 
	C35.566528,13.375519 27.064613,13.435651 18.566574,13.531209 
	C13.226803,13.591253 10.307347,16.446138 10.233446,21.352350 
	C10.152969,26.695229 12.962925,29.552862 18.551817,29.598692 
	C26.383820,29.662920 34.219669,29.740423 42.047714,29.553827 
	C44.942261,29.484831 46.114864,30.457926 46.713280,33.280708 
	C52.437222,60.281116 58.199902,87.274269 64.202370,114.213600 
	C65.065865,118.088989 64.397842,120.422287 61.533985,123.269440 
	C53.914921,130.844040 52.912251,140.418564 55.942329,150.173248 
	C58.644791,158.873245 64.836311,164.408127 74.485100,166.276398 
	C74.943634,166.299820 75.402168,166.323257 76.766296,166.657822 
M638.906494,168.630081 
	C644.817932,168.630081 650.729370,168.630081 657.001648,168.630081 
	C657.001648,152.711334 656.806580,137.723297 657.136353,122.746849 
	C657.220703,118.916992 658.479065,114.906143 660.062805,111.365219 
	C662.369812,106.206955 668.445068,103.409241 673.723694,104.242096 
	C678.954041,105.067329 682.781860,108.661591 683.904358,114.476288 
	C684.622192,118.195053 684.953674,122.037430 684.992798,125.829170 
	C685.121399,138.325043 685.029175,150.823120 685.047058,163.320297 
	C685.049316,164.919693 685.200867,166.518890 685.293274,168.312500 
	C692.617432,168.312500 699.515442,168.312500 706.887939,168.312500 
	C706.887939,166.317688 706.883789,164.691986 706.888611,163.066315 
	C706.930054,149.070206 706.785645,135.069260 707.147400,121.081421 
	C707.237854,117.584618 708.487122,113.900475 710.038635,110.708237 
	C712.548096,105.544952 718.139465,103.178818 723.885376,104.051819 
	C728.425659,104.741653 732.779053,108.932579 733.780762,114.128975 
	C734.469543,117.701607 734.873596,121.380859 734.912292,125.017708 
	C735.049011,137.846771 734.963623,150.678116 734.990356,163.508545 
	C734.993652,165.099213 735.164551,166.689514 735.253418,168.205170 
	C742.604858,168.205170 749.494507,168.205170 756.691345,168.205170 
	C756.691345,160.797501 756.758972,153.814423 756.676331,146.833115 
	C756.532471,134.678055 756.825989,122.485832 755.952393,110.380180 
	C755.039795,97.734573 746.530579,88.030396 735.829590,86.075264 
	C723.488342,83.820450 713.184998,87.427452 705.239990,97.309097 
	C704.490051,98.241852 703.689880,99.134171 702.783325,100.197418 
	C693.035645,81.401665 676.951111,80.578285 654.944458,97.688606 
	C654.944458,94.277733 654.944458,91.242027 654.944458,88.237564 
	C648.070923,88.237564 641.707031,88.237564 635.105286,88.237564 
	C635.105286,114.327019 635.072571,139.972092 635.227295,165.616028 
	C635.233337,166.623215 637.030151,167.619583 638.906494,168.630081 
M621.891296,145.066360 
	C626.507812,122.133453 615.779236,111.052521 597.582764,105.643951 
	C590.141479,103.432182 582.865112,100.597588 575.662415,97.679398 
	C571.841431,96.131363 568.993591,93.394951 568.979919,88.672073 
	C568.966187,83.906540 571.588928,80.945885 575.395569,78.773781 
	C581.035278,75.555740 587.249268,75.141052 593.301453,76.570160 
	C600.940308,78.373947 608.379028,81.025726 616.939880,83.626350 
	C616.939880,76.487572 617.010986,69.270355 616.829407,62.059528 
	C616.811279,61.342537 615.359558,60.407639 614.393555,60.006428 
	C598.755859,53.511353 582.783447,52.447628 566.781494,58.205265 
	C552.378052,63.387753 544.620361,75.967438 545.007385,92.186859 
	C545.312805,104.988335 552.937073,114.104691 567.728943,119.090691 
	C574.944092,121.522728 582.302124,123.539581 589.474426,126.085243 
	C592.048340,126.998772 594.772278,128.461121 596.554565,130.453888 
	C602.239990,136.810608 597.910461,146.569290 588.435486,148.955582 
	C578.464844,151.466675 569.036560,148.941528 559.805786,145.350754 
	C556.326782,143.997421 552.942261,142.401047 548.708679,140.566132 
	C547.860962,146.743195 547.283875,152.293655 546.276794,157.764969 
	C545.704285,160.875290 546.334473,162.645752 549.393860,163.976440 
	C562.505798,169.679550 576.186340,171.922668 590.246765,169.757004 
	C604.803467,167.514877 616.751587,161.130188 621.891296,145.066360 
M326.976593,161.809875 
	C326.976593,155.269485 326.976593,148.729111 326.976593,141.701797 
	C322.674530,143.511566 319.244690,145.122818 315.699585,146.418900 
	C289.122925,156.135269 265.603638,144.626541 262.394043,118.905121 
	C258.870697,90.668900 279.768982,71.681557 305.830536,76.831520 
	C312.872375,78.223022 319.655243,80.924911 327.004547,83.161537 
	C327.004547,77.025764 326.795929,70.736809 327.091797,64.471672 
	C327.241699,61.297386 325.823944,59.986401 323.199951,59.087509 
	C308.015686,53.885941 292.607452,52.806633 277.171143,57.456734 
	C251.787979,65.103249 235.974854,89.160240 237.612076,115.866692 
	C238.660446,132.967819 244.010696,147.728668 257.825714,158.491211 
	C272.529907,169.946503 289.541168,172.438980 307.349609,169.406937 
	C314.029633,168.269592 320.341553,164.970398 326.976593,161.809875 
M832.263367,168.652466 
	C834.031311,168.652466 835.799255,168.652466 837.001465,168.652466 
	C837.001465,148.808746 837.799744,129.670746 836.696106,110.643059 
	C836.054260,99.577736 829.254272,91.106026 817.922546,87.910194 
	C802.330078,83.512703 787.107361,85.464859 772.288330,91.257195 
	C772.288330,97.972862 772.288330,104.362030 772.288330,110.644707 
	C772.743652,110.797028 772.944702,110.938766 773.046265,110.886604 
	C773.923096,110.436577 774.793640,109.971588 775.644287,109.473938 
	C783.888000,104.651230 792.739624,102.388550 802.312622,103.004082 
	C810.735962,103.545685 816.243896,109.587776 815.472473,117.994148 
	C812.705994,117.994148 809.888184,117.893677 807.079529,118.011940 
	C796.268311,118.467171 785.442688,119.127434 775.793945,124.752800 
	C766.969788,129.897415 762.671631,137.882858 763.309021,148.004288 
	C763.975708,158.587830 770.072510,165.627502 779.921204,168.820969 
	C793.121643,173.101196 805.418884,171.376343 816.056824,160.734711 
	C816.364075,163.712585 816.608459,166.080643 816.873413,168.648453 
	C822.012817,168.648453 826.662598,168.648453 832.263367,168.652466 
M408.173523,142.500015 
	C408.124908,133.171997 408.292175,123.836670 407.976898,114.517670 
	C407.508331,100.668251 399.836548,90.285103 387.284698,87.326004 
	C373.212128,84.008400 359.233765,85.322845 345.648315,90.269272 
	C344.342957,90.744545 342.323303,91.866814 342.277802,92.771332 
	C341.975616,98.780540 342.121246,104.812279 342.121246,111.531685 
	C344.280365,110.444016 345.337738,109.996826 346.309601,109.408356 
	C354.526093,104.433273 363.451324,102.499451 372.992493,102.993355 
	C381.858643,103.452332 387.454529,109.526337 386.361664,117.581978 
	C379.568451,118.050812 372.776245,118.411644 366.005615,119.014832 
	C357.967865,119.730904 350.315002,121.779419 343.703827,126.663910 
	C328.780670,137.689560 330.803009,160.103333 347.735931,167.523254 
	C361.626984,173.610260 374.863495,171.931808 386.772247,161.266724 
	C386.949677,163.827026 387.102905,166.038223 387.258453,168.282806 
	C394.345734,168.282806 401.084930,168.282806 408.174774,168.282806 
	C408.174774,159.785233 408.174774,151.642624 408.173523,142.500015 
M935.644348,105.994682 
	C941.051392,105.689964 946.458435,105.385254 951.721741,105.088638 
	C951.721741,99.138763 951.721741,93.702484 951.721741,87.673798 
	C946.059265,87.673798 940.661987,87.673798 934.806213,87.673798 
	C934.806213,79.995171 934.806213,72.911446 934.806213,65.669220 
	C927.291138,65.669220 920.260498,65.669220 912.786621,65.669220 
	C912.786621,73.160629 912.786621,80.252487 912.786621,87.951874 
	C908.980286,87.951874 905.599304,87.951874 902.260742,87.951874 
	C902.260742,94.009293 902.260742,99.441734 902.260742,105.105011 
	C905.898499,105.277519 909.293396,105.438499 912.979126,105.613274 
	C912.979126,119.321503 912.869751,132.468521 913.011780,145.612823 
	C913.138550,157.349838 919.178101,166.819901 929.132202,168.547028 
	C936.664551,169.853973 944.592529,168.966446 952.339966,168.819580 
	C953.141174,168.804413 954.553955,167.206512 954.591064,166.298370 
	C954.807129,161.013107 954.696777,155.714508 954.696777,149.830032 
	C952.661499,150.199112 951.254395,150.484665 949.837341,150.706360 
	C940.438904,152.176636 935.045715,147.689911 935.015808,138.245773 
	C934.982544,127.755455 935.067200,117.264778 935.644348,105.994682 
M513.875427,113.543556 
	C513.875427,111.096046 513.875427,108.648544 513.875427,105.542984 
	C519.469666,105.542984 524.549561,105.542984 529.704468,105.542984 
	C529.704468,99.294937 529.704468,93.718422 529.704468,87.648499 
	C524.340576,87.648499 519.269592,87.648499 513.869934,87.648499 
	C513.869934,81.178207 513.983765,75.199020 513.782043,69.230476 
	C513.737122,67.902130 512.630310,65.506210 511.929657,65.475250 
	C505.366821,65.185265 498.785919,65.303253 491.783142,65.303253 
	C491.783142,73.211098 491.783142,80.295547 491.783142,87.927689 
	C487.948547,87.927689 484.545959,87.927689 480.983154,87.927689 
	C480.983154,93.919434 480.983154,99.348595 480.983154,105.133003 
	C484.618347,105.362335 488.046570,105.578613 491.975281,105.826462 
	C491.975281,107.633217 491.974609,109.263542 491.975403,110.893875 
	C491.981171,122.546715 491.920441,134.200089 492.012665,145.852234 
	C492.099274,156.787079 497.404510,165.021652 506.911743,168.258469 
	C515.451721,171.165985 524.142334,170.309845 532.655273,168.371750 
	C532.655273,162.071274 532.655273,156.160721 532.655273,150.045044 
	C531.315063,150.188766 530.328674,150.217865 529.374573,150.408676 
	C519.159729,152.451584 514.136719,148.498032 513.937378,138.001465 
	C513.788818,130.180481 513.887573,122.354790 513.875427,113.543556 
M445.124054,158.446594 
	C445.149078,147.957565 445.046539,137.466232 445.235931,126.980171 
	C445.416443,116.985390 450.718231,110.407776 460.428986,108.087944 
	C464.753662,107.054802 469.212006,106.581337 473.647614,105.847580 
	C473.647614,99.176826 473.647614,92.630013 473.647614,86.147636 
	C461.506927,84.507828 452.219086,88.576988 444.853973,99.787163 
	C444.853973,94.908531 444.853973,91.536697 444.853973,88.111282 
	C437.742493,88.111282 431.163116,88.111282 424.285522,88.111282 
	C424.285522,114.941582 424.285522,141.477844 424.285522,168.249908 
	C431.278412,168.249908 438.002319,168.249908 445.122803,168.249908 
	C445.122803,165.050156 445.122803,162.238983 445.124054,158.446594 
M848.973145,152.497635 
	C848.973145,157.749771 848.973145,163.001907 848.973145,168.298660 
	C856.415283,168.298660 863.150146,168.298660 870.268860,168.298660 
	C870.268860,166.309311 870.268005,164.673126 870.268860,163.036926 
	C870.274719,152.053299 870.216614,141.069168 870.302856,130.086166 
	C870.419739,115.195435 876.414551,108.654831 891.237244,106.937401 
	C893.475952,106.678024 895.680359,106.122444 897.705811,105.740593 
	C897.705811,98.917091 897.705811,92.513596 897.705811,84.784538 
	C892.021118,86.058311 886.576111,86.387749 882.003723,88.556808 
	C877.552246,90.668518 873.994263,94.663635 869.723755,98.088631 
	C869.723755,94.658775 869.723755,91.395988 869.723755,88.223763 
	C862.623779,88.223763 855.917053,88.223763 848.974243,88.223763 
	C848.974243,109.589157 848.974243,130.543732 848.973145,152.497635 
M165.445999,175.689255 
	C154.857651,173.365799 145.588959,177.169022 140.582489,185.891510 
	C135.980255,193.909714 137.029022,204.771454 143.059540,211.545517 
	C149.359665,218.622437 160.460846,221.031647 169.152588,216.722931 
	C177.772202,212.449982 181.642319,205.186996 181.209366,195.554611 
	C180.757431,185.499969 175.323959,179.326050 165.445999,175.689255 
M94.331459,214.938202 
	C95.549919,213.806427 96.869553,212.764725 97.970467,211.528275 
	C105.281960,203.316925 105.085228,189.893570 97.585365,181.878387 
	C89.826462,173.586365 77.506493,172.511475 68.631569,179.352249 
	C59.498161,186.392227 57.340008,199.090363 63.366680,208.917389 
	C68.963249,218.043106 82.969208,222.352097 94.331459,214.938202 
z"/>
<path fill="#4EB052" opacity="1.000000" stroke="none" 
	d="
M74.124718,165.945312 
	C64.836311,164.408127 58.644791,158.873245 55.942329,150.173248 
	C52.912251,140.418564 53.914921,130.844040 61.533985,123.269440 
	C64.397842,120.422287 65.065865,118.088989 64.202370,114.213600 
	C58.199902,87.274269 52.437222,60.281116 46.713280,33.280708 
	C46.114864,30.457926 44.942261,29.484831 42.047714,29.553827 
	C34.219669,29.740423 26.383820,29.662920 18.551817,29.598692 
	C12.962925,29.552862 10.152969,26.695229 10.233446,21.352350 
	C10.307347,16.446138 13.226803,13.591253 18.566574,13.531209 
	C27.064613,13.435651 35.566528,13.375519 44.062878,13.524361 
	C52.844162,13.678193 59.905670,19.613068 61.949284,28.222797 
	C64.708229,39.846195 64.708229,39.847363 76.632812,39.847111 
	C114.128967,39.846321 151.628067,40.102325 189.119339,39.674049 
	C199.344040,39.557251 203.443497,47.463356 201.361862,55.317104 
	C196.420898,73.958778 192.276382,92.810661 187.734131,111.559204 
	C184.417923,125.247139 175.656967,132.096741 161.570236,132.106918 
	C134.573013,132.126419 107.575691,132.079926 80.578552,132.130112 
	C72.028252,132.146011 67.486092,139.298523 71.509750,146.281525 
	C73.814209,150.280914 77.704193,150.882690 81.869019,150.880234 
	C111.032684,150.863022 140.196381,150.873199 169.360062,150.875031 
	C171.693146,150.875183 174.027893,150.822510 176.358978,150.891495 
	C181.888596,151.055115 185.266907,154.118042 185.241440,158.869537 
	C185.216263,163.566193 181.756073,166.727661 176.249786,166.743500 
	C156.585281,166.800049 136.920532,166.779160 117.255898,166.761459 
	C103.759346,166.749313 90.262825,166.693893 76.124771,166.373871 
	C75.030411,166.041733 74.577560,165.993515 74.124718,165.945312 
M181.977554,55.603943 
	C144.102280,55.603943 106.227005,55.603943 68.024513,55.603943 
	C72.510345,76.316254 76.815582,96.194702 81.140625,116.164604 
	C108.733704,116.164604 135.699997,116.208679 162.665909,116.126770 
	C167.951172,116.110718 170.708649,112.849129 171.884064,107.915627 
	C173.771759,99.992393 175.861511,92.116318 177.677521,84.177238 
	C179.854660,74.659279 181.834137,65.096100 183.815063,55.067799 
	C183.501678,55.167171 183.188278,55.266541 181.977554,55.603943 
z"/>
<path fill="#4EB054" opacity="1.000000" stroke="none" 
	d="
M638.449585,168.625534 
	C637.030151,167.619583 635.233337,166.623215 635.227295,165.616028 
	C635.072571,139.972092 635.105286,114.327019 635.105286,88.237564 
	C641.707031,88.237564 648.070923,88.237564 654.944458,88.237564 
	C654.944458,91.242027 654.944458,94.277733 654.944458,97.688606 
	C676.951111,80.578285 693.035645,81.401665 702.783325,100.197418 
	C703.689880,99.134171 704.490051,98.241852 705.239990,97.309097 
	C713.184998,87.427452 723.488342,83.820450 735.829590,86.075264 
	C746.530579,88.030396 755.039795,97.734573 755.952393,110.380180 
	C756.825989,122.485832 756.532471,134.678055 756.676331,146.833115 
	C756.758972,153.814423 756.691345,160.797501 756.691345,168.205170 
	C749.494507,168.205170 742.604858,168.205170 735.253418,168.205170 
	C735.164551,166.689514 734.993652,165.099213 734.990356,163.508545 
	C734.963623,150.678116 735.049011,137.846771 734.912292,125.017708 
	C734.873596,121.380859 734.469543,117.701607 733.780762,114.128975 
	C732.779053,108.932579 728.425659,104.741653 723.885376,104.051819 
	C718.139465,103.178818 712.548096,105.544952 710.038635,110.708237 
	C708.487122,113.900475 707.237854,117.584618 707.147400,121.081421 
	C706.785645,135.069260 706.930054,149.070206 706.888611,163.066315 
	C706.883789,164.691986 706.887939,166.317688 706.887939,168.312500 
	C699.515442,168.312500 692.617432,168.312500 685.293274,168.312500 
	C685.200867,166.518890 685.049316,164.919693 685.047058,163.320297 
	C685.029175,150.823120 685.121399,138.325043 684.992798,125.829170 
	C684.953674,122.037430 684.622192,118.195053 683.904358,114.476288 
	C682.781860,108.661591 678.954041,105.067329 673.723694,104.242096 
	C668.445068,103.409241 662.369812,106.206955 660.062805,111.365219 
	C658.479065,114.906143 657.220703,118.916992 657.136353,122.746849 
	C656.806580,137.723297 657.001648,152.711334 657.001648,168.630081 
	C650.729370,168.630081 644.817932,168.630081 638.449585,168.625534 
z"/>
<path fill="#4DB052" opacity="1.000000" stroke="none" 
	d="
M621.764404,145.456177 
	C616.751587,161.130188 604.803467,167.514877 590.246765,169.757004 
	C576.186340,171.922668 562.505798,169.679550 549.393860,163.976440 
	C546.334473,162.645752 545.704285,160.875290 546.276794,157.764969 
	C547.283875,152.293655 547.860962,146.743195 548.708679,140.566132 
	C552.942261,142.401047 556.326782,143.997421 559.805786,145.350754 
	C569.036560,148.941528 578.464844,151.466675 588.435486,148.955582 
	C597.910461,146.569290 602.239990,136.810608 596.554565,130.453888 
	C594.772278,128.461121 592.048340,126.998772 589.474426,126.085243 
	C582.302124,123.539581 574.944092,121.522728 567.728943,119.090691 
	C552.937073,114.104691 545.312805,104.988335 545.007385,92.186859 
	C544.620361,75.967438 552.378052,63.387753 566.781494,58.205265 
	C582.783447,52.447628 598.755859,53.511353 614.393555,60.006428 
	C615.359558,60.407639 616.811279,61.342537 616.829407,62.059528 
	C617.010986,69.270355 616.939880,76.487572 616.939880,83.626350 
	C608.379028,81.025726 600.940308,78.373947 593.301453,76.570160 
	C587.249268,75.141052 581.035278,75.555740 575.395569,78.773781 
	C571.588928,80.945885 568.966187,83.906540 568.979919,88.672073 
	C568.993591,93.394951 571.841431,96.131363 575.662415,97.679398 
	C582.865112,100.597588 590.141479,103.432182 597.582764,105.643951 
	C615.779236,111.052521 626.507812,122.133453 621.764404,145.456177 
z"/>
<path fill="#4DB052" opacity="1.000000" stroke="none" 
	d="
M326.898956,162.233368 
	C320.341553,164.970398 314.029633,168.269592 307.349609,169.406937 
	C289.541168,172.438980 272.529907,169.946503 257.825714,158.491211 
	C244.010696,147.728668 238.660446,132.967819 237.612076,115.866692 
	C235.974854,89.160240 251.787979,65.103249 277.171143,57.456734 
	C292.607452,52.806633 308.015686,53.885941 323.199951,59.087509 
	C325.823944,59.986401 327.241699,61.297386 327.091797,64.471672 
	C326.795929,70.736809 327.004547,77.025764 327.004547,83.161537 
	C319.655243,80.924911 312.872375,78.223022 305.830536,76.831520 
	C279.768982,71.681557 258.870697,90.668900 262.394043,118.905121 
	C265.603638,144.626541 289.122925,156.135269 315.699585,146.418900 
	C319.244690,145.122818 322.674530,143.511566 326.976593,141.701797 
	C326.976593,148.729111 326.976593,155.269485 326.898956,162.233368 
z"/>
<path fill="#4EB053" opacity="1.000000" stroke="none" 
	d="
M831.787842,168.650452 
	C826.662598,168.648453 822.012817,168.648453 816.873413,168.648453 
	C816.608459,166.080643 816.364075,163.712585 816.056824,160.734711 
	C805.418884,171.376343 793.121643,173.101196 779.921204,168.820969 
	C770.072510,165.627502 763.975708,158.587830 763.309021,148.004288 
	C762.671631,137.882858 766.969788,129.897415 775.793945,124.752800 
	C785.442688,119.127434 796.268311,118.467171 807.079529,118.011940 
	C809.888184,117.893677 812.705994,117.994148 815.472473,117.994148 
	C816.243896,109.587776 810.735962,103.545685 802.312622,103.004082 
	C792.739624,102.388550 783.888000,104.651230 775.644287,109.473938 
	C774.793640,109.971588 773.923096,110.436577 773.046265,110.886604 
	C772.944702,110.938766 772.743652,110.797028 772.288330,110.644707 
	C772.288330,104.362030 772.288330,97.972862 772.288330,91.257195 
	C787.107361,85.464859 802.330078,83.512703 817.922546,87.910194 
	C829.254272,91.106026 836.054260,99.577736 836.696106,110.643059 
	C837.799744,129.670746 837.001465,148.808746 837.001465,168.652466 
	C835.799255,168.652466 834.031311,168.652466 831.787842,168.650452 
M814.088013,133.088669 
	C809.625122,133.406082 805.121582,133.456741 800.712402,134.127350 
	C797.331665,134.641556 793.547424,135.211136 790.912292,137.105194 
	C788.597839,138.768738 786.565430,142.218613 786.333862,145.037674 
	C786.036499,148.658722 788.840942,151.475128 792.704773,152.250717 
	C799.985718,153.712204 806.153809,151.407578 810.971619,145.921097 
	C814.103271,142.354767 816.397095,138.277756 814.088013,133.088669 
z"/>
<path fill="#4DB052" opacity="1.000000" stroke="none" 
	d="
M408.174133,143.000015 
	C408.174774,151.642624 408.174774,159.785233 408.174774,168.282806 
	C401.084930,168.282806 394.345734,168.282806 387.258453,168.282806 
	C387.102905,166.038223 386.949677,163.827026 386.772247,161.266724 
	C374.863495,171.931808 361.626984,173.610260 347.735931,167.523254 
	C330.803009,160.103333 328.780670,137.689560 343.703827,126.663910 
	C350.315002,121.779419 357.967865,119.730904 366.005615,119.014832 
	C372.776245,118.411644 379.568451,118.050812 386.361664,117.581978 
	C387.454529,109.526337 381.858643,103.452332 372.992493,102.993355 
	C363.451324,102.499451 354.526093,104.433273 346.309601,109.408356 
	C345.337738,109.996826 344.280365,110.444016 342.121246,111.531685 
	C342.121246,104.812279 341.975616,98.780540 342.277802,92.771332 
	C342.323303,91.866814 344.342957,90.744545 345.648315,90.269272 
	C359.233765,85.322845 373.212128,84.008400 387.284698,87.326004 
	C399.836548,90.285103 407.508331,100.668251 407.976898,114.517670 
	C408.292175,123.836670 408.124908,133.171997 408.174133,143.000015 
M368.288422,152.830383 
	C381.172546,149.753540 387.295349,143.188263 386.392914,133.118790 
	C384.113892,133.221512 381.777313,133.082764 379.533478,133.474869 
	C373.414948,134.543991 367.161926,135.329514 361.336304,137.321411 
	C359.339294,138.004227 357.176117,142.049194 357.392181,144.340973 
	C357.638763,146.956711 360.164734,149.628143 362.275024,151.685837 
	C363.364471,152.748154 365.699493,152.533035 368.288422,152.830383 
z"/>
<path fill="#4DB052" opacity="1.000000" stroke="none" 
	d="
M935.372437,106.384468 
	C935.067200,117.264778 934.982544,127.755455 935.015808,138.245773 
	C935.045715,147.689911 940.438904,152.176636 949.837341,150.706360 
	C951.254395,150.484665 952.661499,150.199112 954.696777,149.830032 
	C954.696777,155.714508 954.807129,161.013107 954.591064,166.298370 
	C954.553955,167.206512 953.141174,168.804413 952.339966,168.819580 
	C944.592529,168.966446 936.664551,169.853973 929.132202,168.547028 
	C919.178101,166.819901 913.138550,157.349838 913.011780,145.612823 
	C912.869751,132.468521 912.979126,119.321503 912.979126,105.613274 
	C909.293396,105.438499 905.898499,105.277519 902.260742,105.105011 
	C902.260742,99.441734 902.260742,94.009293 902.260742,87.951874 
	C905.599304,87.951874 908.980286,87.951874 912.786621,87.951874 
	C912.786621,80.252487 912.786621,73.160629 912.786621,65.669220 
	C920.260498,65.669220 927.291138,65.669220 934.806213,65.669220 
	C934.806213,72.911446 934.806213,79.995171 934.806213,87.673798 
	C940.661987,87.673798 946.059265,87.673798 951.721741,87.673798 
	C951.721741,93.702484 951.721741,99.138763 951.721741,105.088638 
	C946.458435,105.385254 941.051392,105.689964 935.372437,106.384468 
z"/>
<path fill="#4DB052" opacity="1.000000" stroke="none" 
	d="
M513.875854,114.037376 
	C513.887573,122.354790 513.788818,130.180481 513.937378,138.001465 
	C514.136719,148.498032 519.159729,152.451584 529.374573,150.408676 
	C530.328674,150.217865 531.315063,150.188766 532.655273,150.045044 
	C532.655273,156.160721 532.655273,162.071274 532.655273,168.371750 
	C524.142334,170.309845 515.451721,171.165985 506.911743,168.258469 
	C497.404510,165.021652 492.099274,156.787079 492.012665,145.852234 
	C491.920441,134.200089 491.981171,122.546715 491.975403,110.893875 
	C491.974609,109.263542 491.975281,107.633217 491.975281,105.826462 
	C488.046570,105.578613 484.618347,105.362335 480.983154,105.133003 
	C480.983154,99.348595 480.983154,93.919434 480.983154,87.927689 
	C484.545959,87.927689 487.948547,87.927689 491.783142,87.927689 
	C491.783142,80.295547 491.783142,73.211098 491.783142,65.303253 
	C498.785919,65.303253 505.366821,65.185265 511.929657,65.475250 
	C512.630310,65.506210 513.737122,67.902130 513.782043,69.230476 
	C513.983765,75.199020 513.869934,81.178207 513.869934,87.648499 
	C519.269592,87.648499 524.340576,87.648499 529.704468,87.648499 
	C529.704468,93.718422 529.704468,99.294937 529.704468,105.542984 
	C524.549561,105.542984 519.469666,105.542984 513.875427,105.542984 
	C513.875427,108.648544 513.875427,111.096046 513.875854,114.037376 
z"/>
<path fill="#4DB051" opacity="1.000000" stroke="none" 
	d="
M445.123413,158.937210 
	C445.122803,162.238983 445.122803,165.050156 445.122803,168.249908 
	C438.002319,168.249908 431.278412,168.249908 424.285522,168.249908 
	C424.285522,141.477844 424.285522,114.941582 424.285522,88.111282 
	C431.163116,88.111282 437.742493,88.111282 444.853973,88.111282 
	C444.853973,91.536697 444.853973,94.908531 444.853973,99.787163 
	C452.219086,88.576988 461.506927,84.507828 473.647614,86.147636 
	C473.647614,92.630013 473.647614,99.176826 473.647614,105.847580 
	C469.212006,106.581337 464.753662,107.054802 460.428986,108.087944 
	C450.718231,110.407776 445.416443,116.985390 445.235931,126.980171 
	C445.046539,137.466232 445.149078,147.957565 445.123413,158.937210 
z"/>
<path fill="#4DB051" opacity="1.000000" stroke="none" 
	d="
M848.973694,151.997955 
	C848.974243,130.543732 848.974243,109.589157 848.974243,88.223763 
	C855.917053,88.223763 862.623779,88.223763 869.723755,88.223763 
	C869.723755,91.395988 869.723755,94.658775 869.723755,98.088631 
	C873.994263,94.663635 877.552246,90.668518 882.003723,88.556808 
	C886.576111,86.387749 892.021118,86.058311 897.705811,84.784538 
	C897.705811,92.513596 897.705811,98.917091 897.705811,105.740593 
	C895.680359,106.122444 893.475952,106.678024 891.237244,106.937401 
	C876.414551,108.654831 870.419739,115.195435 870.302856,130.086166 
	C870.216614,141.069168 870.274719,152.053299 870.268860,163.036926 
	C870.268005,164.673126 870.268860,166.309311 870.268860,168.298660 
	C863.150146,168.298660 856.415283,168.298660 848.973145,168.298660 
	C848.973145,163.001907 848.973145,157.749771 848.973694,151.997955 
z"/>
<path fill="#4EB053" opacity="1.000000" stroke="none" 
	d="
M165.842773,175.788147 
	C175.323959,179.326050 180.757431,185.499969 181.209366,195.554611 
	C181.642319,205.186996 177.772202,212.449982 169.152588,216.722931 
	C160.460846,221.031647 149.359665,218.622437 143.059540,211.545517 
	C137.029022,204.771454 135.980255,193.909714 140.582489,185.891510 
	C145.588959,177.169022 154.857651,173.365799 165.842773,175.788147 
M153.735245,191.112106 
	C153.028152,192.399643 151.978745,193.612289 151.677704,194.988647 
	C150.748444,199.237244 152.335144,202.634079 156.312332,204.332230 
	C160.149918,205.970734 163.905365,205.340439 166.430542,201.706573 
	C168.912430,198.134995 168.618774,194.325211 165.581650,191.294983 
	C162.221649,187.942627 158.243835,188.029297 153.735245,191.112106 
z"/>
<path fill="#4EB053" opacity="1.000000" stroke="none" 
	d="
M94.022964,215.137222 
	C82.969208,222.352097 68.963249,218.043106 63.366680,208.917389 
	C57.340008,199.090363 59.498161,186.392227 68.631569,179.352249 
	C77.506493,172.511475 89.826462,173.586365 97.585365,181.878387 
	C105.085228,189.893570 105.281960,203.316925 97.970467,211.528275 
	C96.869553,212.764725 95.549919,213.806427 94.022964,215.137222 
M76.463249,203.224091 
	C82.073639,206.285080 86.844208,205.258530 89.123169,200.499863 
	C91.130905,196.307556 89.467606,191.529282 85.159256,189.656738 
	C81.655685,188.133987 78.130333,188.407669 75.613777,191.435135 
	C72.574829,195.091095 72.693382,199.024292 76.463249,203.224091 
z"/>
<path fill="#64BB69" opacity="1.000000" stroke="none" 
	d="
M74.304909,166.110855 
	C74.577560,165.993515 75.030411,166.041733 75.671982,166.218307 
	C75.402168,166.323257 74.943634,166.299820 74.304909,166.110855 
z"/>
<path fill="#FEFFFE" opacity="1.000000" stroke="none" 
	d="
M183.899231,55.552509 
	C181.834137,65.096100 179.854660,74.659279 177.677521,84.177238 
	C175.861511,92.116318 173.771759,99.992393 171.884064,107.915627 
	C170.708649,112.849129 167.951172,116.110718 162.665909,116.126770 
	C135.699997,116.208679 108.733704,116.164604 81.140625,116.164604 
	C76.815582,96.194702 72.510345,76.316254 68.024513,55.603943 
	C106.227005,55.603943 144.102280,55.603943 182.673615,55.580193 
	C183.546188,55.555130 183.722702,55.553818 183.899231,55.552509 
z"/>
<path fill="#40A944" opacity="1.000000" stroke="none" 
	d="
M183.857147,55.310154 
	C183.722702,55.553818 183.546188,55.555130 183.122284,55.461174 
	C183.188278,55.266541 183.501678,55.167171 183.857147,55.310154 
z"/>
<path fill="#FAFDFB" opacity="1.000000" stroke="none" 
	d="
M814.505981,133.126892 
	C816.397095,138.277756 814.103271,142.354767 810.971619,145.921097 
	C806.153809,151.407578 799.985718,153.712204 792.704773,152.250717 
	C788.840942,151.475128 786.036499,148.658722 786.333862,145.037674 
	C786.565430,142.218613 788.597839,138.768738 790.912292,137.105194 
	C793.547424,135.211136 797.331665,134.641556 800.712402,134.127350 
	C805.121582,133.456741 809.625122,133.406082 814.505981,133.126892 
z"/>
<path fill="#F9FDFB" opacity="1.000000" stroke="none" 
	d="
M367.880066,152.862732 
	C365.699493,152.533035 363.364471,152.748154 362.275024,151.685837 
	C360.164734,149.628143 357.638763,146.956711 357.392181,144.340973 
	C357.176117,142.049194 359.339294,138.004227 361.336304,137.321411 
	C367.161926,135.329514 373.414948,134.543991 379.533478,133.474869 
	C381.777313,133.082764 384.113892,133.221512 386.392914,133.118790 
	C387.295349,143.188263 381.172546,149.753540 367.880066,152.862732 
z"/>
<path fill="#F8FDFA" opacity="1.000000" stroke="none" 
	d="
M154.019913,190.844971 
	C158.243835,188.029297 162.221649,187.942627 165.581650,191.294983 
	C168.618774,194.325211 168.912430,198.134995 166.430542,201.706573 
	C163.905365,205.340439 160.149918,205.970734 156.312332,204.332230 
	C152.335144,202.634079 150.748444,199.237244 151.677704,194.988647 
	C151.978745,193.612289 153.028152,192.399643 154.019913,190.844971 
z"/>
<path fill="#F8FDFA" opacity="1.000000" stroke="none" 
	d="
M76.184921,202.961517 
	C72.693382,199.024292 72.574829,195.091095 75.613777,191.435135 
	C78.130333,188.407669 81.655685,188.133987 85.159256,189.656738 
	C89.467606,191.529282 91.130905,196.307556 89.123169,200.499863 
	C86.844208,205.258530 82.073639,206.285080 76.184921,202.961517 
z"/>
</svg>